<svg width="16" height="16" viewBox="0 0 16 16" fill="none" xmlns="http://www.w3.org/2000/svg">
<path d="M8.0026 6.26667C8.0026 4.77319 8.0026 4.02646 8.29325 3.45603C8.54892 2.95426 8.95686 2.54631 9.45863 2.29065C10.0291 2 10.7758 2 12.2693 2H12.5359C13.2827 2 13.656 2 13.9413 2.14532C14.1921 2.27316 14.3961 2.47713 14.5239 2.72801C14.6693 3.01323 14.6693 3.3866 14.6693 4.13333V9.86667C14.6693 10.6134 14.6693 10.9868 14.5239 11.272C14.3961 11.5229 14.1921 11.7268 13.9413 11.8547C13.656 12 13.2827 12 12.5359 12H11.6194C10.7845 12 10.3671 12 9.9882 12.1151C9.65276 12.2169 9.3407 12.3839 9.06987 12.6065C8.76395 12.858 8.5324 13.2053 8.06931 13.8999L8.0026 14L7.9359 13.8999C7.47281 13.2053 7.24126 12.858 6.93534 12.6065C6.66451 12.3839 6.35245 12.2169 6.01701 12.1151C5.6381 12 5.22068 12 4.38582 12H3.46927C2.72253 12 2.34917 12 2.06395 11.8547C1.81307 11.7268 1.60909 11.5229 1.48126 11.272C1.33594 10.9868 1.33594 10.6134 1.33594 9.86667V4.13333C1.33594 3.3866 1.33594 3.01323 1.48126 2.72801C1.60909 2.47713 1.81307 2.27316 2.06395 2.14532C2.34917 2 2.72253 2 3.46927 2H3.73594C5.22941 2 5.97615 2 6.54658 2.29065C7.04834 2.54631 7.45629 2.95426 7.71195 3.45603C8.0026 4.02646 8.0026 4.77319 8.0026 6.26667ZM8.0026 14V6.26667" stroke="#134BBF" stroke-width="1.3" stroke-linecap="round" stroke-linejoin="round"/>
</svg>
