<svg width="20" height="22" viewBox="0 0 20 22" fill="none" xmlns="http://www.w3.org/2000/svg">
<path d="M12.8984 13.7518C12.8984 14.5802 13.57 15.2518 14.3984 15.2518C15.2269 15.2518 15.8984 14.5802 15.8984 13.7518C15.8984 12.9234 15.2269 12.2518 14.3984 12.2518C13.57 12.2518 12.8984 12.9234 12.8984 13.7518Z" stroke="#C53030" stroke-width="1.5"/>
<path d="M0.898438 10.7518V4.7518C3.00314 5.37313 7.47463 6.17851 12.9022 6.55461C15.8236 6.75705 17.2843 6.85826 18.0914 7.72868C18.8984 8.5991 18.8984 10.0015 18.8984 12.8064V14.8201C18.8984 17.7084 18.8984 19.1526 17.9147 20.0516C16.931 20.9505 15.5903 20.8195 12.9091 20.5576C12.2556 20.4937 11.5831 20.4178 10.8984 20.328" stroke="#C53030" stroke-width="1.5" stroke-linecap="round" stroke-linejoin="round"/>
<path d="M15.5242 6.75186C15.9019 5.32859 16.2437 2.74008 15.2254 1.45478C14.58 0.640132 13.6207 0.7184 12.6802 0.801117C7.73634 1.23592 4.24388 2.11917 2.29145 2.71924C1.45192 2.97726 0.898438 3.79708 0.898438 4.7123" stroke="#C53030" stroke-width="1.5" stroke-linejoin="round"/>
<path d="M8.89844 13.7519L0.898438 20.7519M0.898438 16.0852V20.7519H6.23177" stroke="#C53030" stroke-width="1.8" stroke-linecap="round" stroke-linejoin="round"/>
</svg>
