<svg width="800" height="800" viewBox="0 0 24 24" fill="none" xmlns="http://www.w3.org/2000/svg">
<path d="M20.447 20.452H16.653V14.883C16.653 13.555 16.632 11.846 14.812 11.846C12.971 11.846 12.702 13.291 12.702 14.785V20.452H8.908V8.919H12.553V10.484H12.6C12.986 9.739 13.964 8.945 15.447 8.945C18.54 8.945 19.146 11.097 19.146 14.076L19.147 20.453H20.447V20.452ZM3.34 7.149C2.133 7.149 1.152 6.166 1.152 4.963C1.152 3.759 2.133 2.777 3.34 2.777C4.544 2.777 5.527 3.759 5.527 4.963C5.527 6.166 4.544 7.149 3.34 7.149ZM5.163 20.452H1.517V8.919H5.163V20.452ZM22.225 0H1.771C0.792 0 0 0.774 0 1.729V22.271C0 23.226 0.792 24 1.771 24H22.222C23.2 24 24 23.226 24 22.271V1.729C24 0.774 23.2 0 22.222 0H22.225Z" fill="#0A66C2"/>
</svg>
