<svg width="800" height="800" viewBox="0 0 24 24" fill="none" xmlns="http://www.w3.org/2000/svg">
<path d="M23.498 6.186C23.28 5.313 22.596 4.632 21.718 4.415C19.785 3.955 12 3.955 12 3.955C12 3.955 4.215 3.955 2.282 4.415C1.404 4.632 0.72 5.313 0.502 6.186C0 8.083 0 12 0 12C0 12 0 15.917 0.502 17.814C0.72 18.687 1.404 19.368 2.282 19.585C4.215 20.045 12 20.045 12 20.045C12 20.045 19.785 20.045 21.718 19.585C22.596 19.368 23.28 18.687 23.498 17.814C24 15.917 24 12 24 12C24 12 24 8.083 23.498 6.186ZM9.545 15.568V8.432L15.818 12L9.545 15.568Z" fill="#FF0000"/>
</svg>
