<svg width="20" height="20" viewBox="0 0 20 20" fill="none" xmlns="http://www.w3.org/2000/svg">
<path d="M4.25 4.25H4.26M15.25 4.25H15.26M4.25 15.25H4.26M15.75 15.25H15.76M13.35 7.75H17.15C17.7101 7.75 17.9901 7.75 18.204 7.64101C18.3922 7.54513 18.5451 7.39215 18.641 7.20399C18.75 6.99008 18.75 6.71005 18.75 6.15V2.35C18.75 1.78995 18.75 1.50992 18.641 1.29601C18.5451 1.10785 18.3922 0.954867 18.204 0.858993C17.9901 0.75 17.7101 0.75 17.15 0.75H13.35C12.7899 0.75 12.5099 0.75 12.296 0.858993C12.1078 0.954867 11.9549 1.10785 11.859 1.29601C11.75 1.50992 11.75 1.78995 11.75 2.35V6.15C11.75 6.71005 11.75 6.99008 11.859 7.20399C11.9549 7.39215 12.1078 7.54513 12.296 7.64101C12.5099 7.75 12.7899 7.75 13.35 7.75ZM2.35 7.75H6.15C6.71005 7.75 6.99008 7.75 7.20399 7.64101C7.39215 7.54513 7.54513 7.39215 7.64101 7.20399C7.75 6.99008 7.75 6.71005 7.75 6.15V2.35C7.75 1.78995 7.75 1.50992 7.64101 1.29601C7.54513 1.10785 7.39215 0.954867 7.20399 0.858993C6.99008 0.75 6.71005 0.75 6.15 0.75H2.35C1.78995 0.75 1.50992 0.75 1.29601 0.858993C1.10785 0.954867 0.954867 1.10785 0.858993 1.29601C0.75 1.50992 0.75 1.78995 0.75 2.35V6.15C0.75 6.71005 0.75 6.99008 0.858993 7.20399C0.954867 7.39215 1.10785 7.54513 1.29601 7.64101C1.50992 7.75 1.78995 7.75 2.35 7.75ZM2.35 18.75H6.15C6.71005 18.75 6.99008 18.75 7.20399 18.641C7.39215 18.5451 7.54513 18.3922 7.64101 18.204C7.75 17.9901 7.75 17.7101 7.75 17.15V13.35C7.75 12.7899 7.75 12.5099 7.64101 12.296C7.54513 12.1078 7.39215 11.9549 7.20399 11.859C6.99008 11.75 6.71005 11.75 6.15 11.75H2.35C1.78995 11.75 1.50992 11.75 1.29601 11.859C1.10785 11.9549 0.954867 12.1078 0.858993 12.296C0.75 12.5099 0.75 12.7899 0.75 13.35V17.15C0.75 17.7101 0.75 17.9901 0.858993 18.204C0.954867 18.3922 1.10785 18.5451 1.29601 18.641C1.50992 18.75 1.78995 18.75 2.35 18.75ZM13.85 18.75H17.65C18.2101 18.75 18.4901 18.75 18.704 18.641C18.8922 18.5451 19.0451 18.3922 19.141 18.204C19.25 17.9901 19.25 17.7101 19.25 17.15V13.35C19.25 12.7899 19.25 12.5099 19.141 12.296C19.0451 12.1078 18.8922 11.9549 18.704 11.859C18.4901 11.75 18.2101 11.75 17.65 11.75H13.85C13.2899 11.75 13.0099 11.75 12.796 11.859C12.6078 11.9549 12.4549 12.1078 12.359 12.296C12.25 12.5099 12.25 12.7899 12.25 13.35V17.15C12.25 17.7101 12.25 17.9901 12.359 18.204C12.4549 18.3922 12.6078 18.5451 12.796 18.641C13.0099 18.75 13.2899 18.75 13.85 18.75Z" stroke="#4A5568" stroke-width="1.5" stroke-linecap="round" stroke-linejoin="round"/>
</svg>
