<svg width="20" height="20" viewBox="0 0 20 20" fill="none" xmlns="http://www.w3.org/2000/svg">
<path d="M10 5.83333V17.5" stroke="#155DFC" stroke-width="1.66667" stroke-linecap="round" stroke-linejoin="round"/>
<path d="M2.50521 15C2.28419 15 2.07223 14.9122 1.91595 14.7559C1.75967 14.5996 1.67188 14.3877 1.67188 14.1667V3.33333C1.67188 3.11232 1.75967 2.90036 1.91595 2.74408C2.07223 2.5878 2.28419 2.5 2.50521 2.5H6.67187C7.55593 2.5 8.40378 2.85119 9.0289 3.47631C9.65402 4.10143 10.0052 4.94928 10.0052 5.83333C10.0052 4.94928 10.3564 4.10143 10.9815 3.47631C11.6066 2.85119 12.4545 2.5 13.3385 2.5H17.5052C17.7262 2.5 17.9382 2.5878 18.0945 2.74408C18.2507 2.90036 18.3385 3.11232 18.3385 3.33333V14.1667C18.3385 14.3877 18.2507 14.5996 18.0945 14.7559C17.9382 14.9122 17.7262 15 17.5052 15H12.5052C11.8422 15 11.2063 15.2634 10.7374 15.7322C10.2686 16.2011 10.0052 16.837 10.0052 17.5C10.0052 16.837 9.74182 16.2011 9.27298 15.7322C8.80413 15.2634 8.16825 15 7.50521 15H2.50521Z" stroke="#155DFC" stroke-width="1.66667" stroke-linecap="round" stroke-linejoin="round"/>
</svg>
