<svg width="15" height="15" viewBox="0 0 15 15" fill="none" xmlns="http://www.w3.org/2000/svg">
<path d="M4.98177 9.09444C4.98177 9.95355 5.67822 10.65 6.53733 10.65H7.98177C8.90224 10.65 9.64844 9.9038 9.64844 8.98333C9.64844 8.06285 8.90224 7.31666 7.98177 7.31666H6.64844C5.72796 7.31666 4.98177 6.57047 4.98177 5.64999C4.98177 4.72952 5.72796 3.98333 6.64844 3.98333H8.09288C8.95199 3.98333 9.64844 4.67977 9.64844 5.53888M7.3151 2.98333V3.98333M7.3151 10.65V11.65M13.9818 7.31666C13.9818 10.9986 10.997 13.9833 7.3151 13.9833C3.63321 13.9833 0.648438 10.9986 0.648438 7.31666C0.648438 3.63476 3.63321 0.649994 7.3151 0.649994C10.997 0.649994 13.9818 3.63476 13.9818 7.31666Z" stroke="#155DFC" stroke-width="1.3" stroke-linecap="round" stroke-linejoin="round"/>
</svg>
