<svg width="16" height="16" viewBox="0 0 16 16" fill="none" xmlns="http://www.w3.org/2000/svg">
<path d="M9.33073 1.51303V4.26673C9.33073 4.64009 9.33073 4.82678 9.40339 4.96938C9.46731 5.09483 9.56929 5.19681 9.69474 5.26073C9.83734 5.33339 10.024 5.33339 10.3974 5.33339H13.1511M9.33073 11.3333H5.33073M10.6641 8.66668H5.33073M13.3307 6.65883V11.4667C13.3307 12.5868 13.3307 13.1468 13.1127 13.5747C12.921 13.951 12.615 14.2569 12.2387 14.4487C11.8109 14.6667 11.2508 14.6667 10.1307 14.6667H5.86406C4.74396 14.6667 4.18391 14.6667 3.75608 14.4487C3.37976 14.2569 3.0738 13.951 2.88205 13.5747C2.66406 13.1468 2.66406 12.5868 2.66406 11.4667V4.53334C2.66406 3.41324 2.66406 2.85319 2.88205 2.42536C3.0738 2.04904 3.37976 1.74308 3.75608 1.55133C4.18391 1.33334 4.74396 1.33334 5.86406 1.33334H8.00525C8.49443 1.33334 8.73902 1.33334 8.96919 1.3886C9.17327 1.4376 9.36835 1.51841 9.5473 1.62806C9.74913 1.75175 9.92208 1.9247 10.268 2.2706L12.3935 4.39608C12.7394 4.74199 12.9123 4.91494 13.036 5.11677C13.1457 5.29572 13.2265 5.49081 13.2755 5.69488C13.3307 5.92505 13.3307 6.16965 13.3307 6.65883Z" stroke="#134BBF" stroke-width="1.3" stroke-linecap="round" stroke-linejoin="round"/>
</svg>
