<svg width="20" height="20" viewBox="0 0 20 20" fill="none" xmlns="http://www.w3.org/2000/svg">
<path d="M9.60306 1.91176C9.63958 1.83798 9.696 1.77587 9.76594 1.73245C9.83588 1.68903 9.91657 1.66602 9.9989 1.66602C10.0812 1.66602 10.1619 1.68903 10.2319 1.73245C10.3018 1.77587 10.3582 1.83798 10.3947 1.91176L12.3197 5.81093C12.4465 6.06757 12.6337 6.2896 12.8653 6.45797C13.0968 6.62634 13.3657 6.73602 13.6489 6.77759L17.9539 7.40759C18.0355 7.41941 18.1121 7.45382 18.1751 7.50693C18.2382 7.56003 18.2851 7.62972 18.3106 7.7081C18.3361 7.78648 18.3391 7.87043 18.3194 7.95046C18.2996 8.03048 18.2579 8.10339 18.1989 8.16093L15.0856 11.1926C14.8802 11.3927 14.7266 11.6397 14.6379 11.9123C14.5492 12.1849 14.5281 12.475 14.5764 12.7576L15.3114 17.0409C15.3258 17.1225 15.317 17.2064 15.286 17.2832C15.255 17.3599 15.203 17.4264 15.136 17.4751C15.069 17.5237 14.9897 17.5526 14.9071 17.5583C14.8245 17.5641 14.742 17.5465 14.6689 17.5076L10.8206 15.4843C10.567 15.3511 10.2849 15.2816 9.99848 15.2816C9.71208 15.2816 9.42996 15.3511 9.1764 15.4843L5.3289 17.5076C5.25584 17.5463 5.17339 17.5637 5.09094 17.5578C5.00848 17.5519 4.92933 17.5231 4.86247 17.4744C4.79562 17.4258 4.74376 17.3594 4.71278 17.2828C4.6818 17.2061 4.67294 17.1223 4.68723 17.0409L5.4214 12.7584C5.46989 12.4757 5.44888 12.1854 5.36018 11.9126C5.27147 11.6398 5.11774 11.3927 4.91223 11.1926L1.7989 8.16176C1.73939 8.10429 1.69722 8.03126 1.6772 7.95099C1.65717 7.87072 1.66009 7.78644 1.68563 7.70775C1.71116 7.62906 1.75828 7.55913 1.82163 7.50591C1.88497 7.4527 1.96198 7.41834 2.0439 7.40676L6.34806 6.77759C6.63161 6.73634 6.90089 6.62681 7.13272 6.45842C7.36455 6.29002 7.55198 6.06782 7.6789 5.81093L9.60306 1.91176Z" stroke="#155DFC" stroke-width="1.66667" stroke-linecap="round" stroke-linejoin="round"/>
</svg>
