<svg width="40" height="40" viewBox="0 0 40 40" fill="none" xmlns="http://www.w3.org/2000/svg">
<rect x="0.5" y="0.5" width="39" height="39" rx="19.5" fill="#F5F5F5"/>
<rect x="0.5" y="0.5" width="39" height="39" rx="19.5" stroke="#EFEFF0"/>
<rect x="11.25" y="11.25" width="17.5" height="17.5" rx="6" fill="url(#paint0_radial_2_1274)"/>
<rect x="11.25" y="11.25" width="17.5" height="17.5" rx="6" fill="url(#paint1_radial_2_1274)"/>
<rect x="11.25" y="11.25" width="17.5" height="17.5" rx="6" fill="url(#paint2_radial_2_1274)"/>
<path d="M24.375 16.5625C24.375 17.0803 23.9553 17.5 23.4375 17.5C22.9197 17.5 22.5 17.0803 22.5 16.5625C22.5 16.0447 22.9197 15.625 23.4375 15.625C23.9553 15.625 24.375 16.0447 24.375 16.5625Z" fill="white"/>
<path fill-rule="evenodd" clip-rule="evenodd" d="M20 23.125C21.7259 23.125 23.125 21.7259 23.125 20C23.125 18.2741 21.7259 16.875 20 16.875C18.2741 16.875 16.875 18.2741 16.875 20C16.875 21.7259 18.2741 23.125 20 23.125ZM20 21.875C21.0355 21.875 21.875 21.0355 21.875 20C21.875 18.9645 21.0355 18.125 20 18.125C18.9645 18.125 18.125 18.9645 18.125 20C18.125 21.0355 18.9645 21.875 20 21.875Z" fill="white"/>
<path fill-rule="evenodd" clip-rule="evenodd" d="M13.75 19.75C13.75 17.6498 13.75 16.5997 14.1587 15.7975C14.5183 15.0919 15.0919 14.5183 15.7975 14.1587C16.5997 13.75 17.6498 13.75 19.75 13.75H20.25C22.3502 13.75 23.4003 13.75 24.2025 14.1587C24.9081 14.5183 25.4817 15.0919 25.8413 15.7975C26.25 16.5997 26.25 17.6498 26.25 19.75V20.25C26.25 22.3502 26.25 23.4003 25.8413 24.2025C25.4817 24.9081 24.9081 25.4817 24.2025 25.8413C23.4003 26.25 22.3502 26.25 20.25 26.25H19.75C17.6498 26.25 16.5997 26.25 15.7975 25.8413C15.0919 25.4817 14.5183 24.9081 14.1587 24.2025C13.75 23.4003 13.75 22.3502 13.75 20.25V19.75ZM19.75 15H20.25C21.3207 15 22.0486 15.001 22.6112 15.0469C23.1592 15.0917 23.4395 15.1729 23.635 15.2725C24.1054 15.5122 24.4878 15.8946 24.7275 16.365C24.8271 16.5605 24.9083 16.8408 24.9531 17.3888C24.999 17.9514 25 18.6793 25 19.75V20.25C25 21.3207 24.999 22.0486 24.9531 22.6112C24.9083 23.1592 24.8271 23.4395 24.7275 23.635C24.4878 24.1054 24.1054 24.4878 23.635 24.7275C23.4395 24.8271 23.1592 24.9083 22.6112 24.9531C22.0486 24.999 21.3207 25 20.25 25H19.75C18.6793 25 17.9514 24.999 17.3888 24.9531C16.8408 24.9083 16.5605 24.8271 16.365 24.7275C15.8946 24.4878 15.5122 24.1054 15.2725 23.635C15.1729 23.4395 15.0917 23.1592 15.0469 22.6112C15.001 22.0486 15 21.3207 15 20.25V19.75C15 18.6793 15.001 17.9514 15.0469 17.3888C15.0917 16.8408 15.1729 16.5605 15.2725 16.365C15.5122 15.8946 15.8946 15.5122 16.365 15.2725C16.5605 15.1729 16.8408 15.0917 17.3888 15.0469C17.9514 15.001 18.6793 15 19.75 15Z" fill="white"/>
<defs>
<radialGradient id="paint0_radial_2_1274" cx="0" cy="0" r="1" gradientUnits="userSpaceOnUse" gradientTransform="translate(17.5 24.375) rotate(-55.3758) scale(15.9498)">
<stop stop-color="#B13589"/>
<stop offset="0.79309" stop-color="#C62F94"/>
<stop offset="1" stop-color="#8A3AC8"/>
</radialGradient>
<radialGradient id="paint1_radial_2_1274" cx="0" cy="0" r="1" gradientUnits="userSpaceOnUse" gradientTransform="translate(16.875 29.375) rotate(-65.1363) scale(14.1214)">
<stop stop-color="#E0E8B7"/>
<stop offset="0.444662" stop-color="#FB8A2E"/>
<stop offset="0.71474" stop-color="#E2425C"/>
<stop offset="1" stop-color="#E2425C" stop-opacity="0"/>
</radialGradient>
<radialGradient id="paint2_radial_2_1274" cx="0" cy="0" r="1" gradientUnits="userSpaceOnUse" gradientTransform="translate(10.3125 11.875) rotate(-8.1301) scale(24.3068 5.19897)">
<stop offset="0.156701" stop-color="#406ADC"/>
<stop offset="0.467799" stop-color="#6A45BE"/>
<stop offset="1" stop-color="#6A45BE" stop-opacity="0"/>
</radialGradient>
</defs>
</svg>
