<svg width="40" height="40" viewBox="0 0 40 40" fill="none" xmlns="http://www.w3.org/2000/svg">
<rect x="0.5" y="0.5" width="39" height="39" rx="19.5" fill="#F5F5F5"/>
<rect x="0.5" y="0.5" width="39" height="39" rx="19.5" stroke="#EFEFF0"/>
<rect x="11.25" y="11.25" width="17.5" height="17.5" rx="8.75" fill="#1275B1"/>
<path d="M17.8866 16.0576C17.8866 16.6417 17.3803 17.1152 16.7558 17.1152C16.1313 17.1152 15.625 16.6417 15.625 16.0576C15.625 15.4735 16.1313 15 16.7558 15C17.3803 15 17.8866 15.4735 17.8866 16.0576Z" fill="white"/>
<path d="M15.7796 17.8926H17.7126V23.75H15.7796V17.8926Z" fill="white"/>
<path d="M20.8247 17.8926H18.8918V23.75H20.8247C20.8247 23.75 20.8247 21.906 20.8247 20.753C20.8247 20.061 21.061 19.366 22.0039 19.366C23.0694 19.366 23.063 20.2716 23.058 20.9732C23.0515 21.8903 23.067 22.8262 23.067 23.75H25V20.6586C24.9836 18.6846 24.4693 17.7751 22.7771 17.7751C21.7721 17.7751 21.1492 18.2313 20.8247 18.6441V17.8926Z" fill="white"/>
</svg>
