<svg width="40" height="40" viewBox="0 0 40 40" fill="none" xmlns="http://www.w3.org/2000/svg">
<rect x="0.5" y="0.5" width="39" height="39" rx="19.5" fill="#F5F5F5"/>
<rect x="0.5" y="0.5" width="39" height="39" rx="19.5" stroke="#EFEFF0"/>
<path d="M17.368 27.5C15.3461 27.5 13.4614 26.9119 11.875 25.8973C13.2219 25.9844 15.5988 25.7757 17.0772 24.3655C14.8532 24.2634 13.8502 22.5577 13.7193 21.8287C13.9083 21.9016 14.8096 21.9891 15.3183 21.785C12.7599 21.1435 12.3675 18.8983 12.4547 18.2131C12.9344 18.5484 13.7484 18.6651 14.0682 18.6359C11.6842 16.9301 12.5419 14.3642 12.9634 13.8102C14.6743 16.1804 17.2383 17.5116 20.4102 17.5857C20.3504 17.3233 20.3188 17.0503 20.3188 16.7698C20.3188 14.7568 21.9459 13.125 23.9529 13.125C25.0016 13.125 25.9465 13.5705 26.6098 14.283C27.3106 14.1188 28.3652 13.7344 28.8808 13.402C28.6209 14.3351 27.8118 15.1134 27.3224 15.4019C27.3185 15.3921 27.3265 15.4117 27.3224 15.4019C27.7523 15.3369 28.9155 15.1134 29.375 14.8016C29.1478 15.3258 28.29 16.1973 27.5861 16.6853C27.717 22.4613 23.2978 27.5 17.368 27.5Z" fill="#47ACDF"/>
</svg>
