<svg width="16" height="16" viewBox="0 0 16 16" fill="none" xmlns="http://www.w3.org/2000/svg">
<path d="M14.6693 5.95424C14.6693 5.55036 14.6693 5.34843 14.5894 5.25492C14.5201 5.17378 14.4162 5.13072 14.3098 5.13909C14.1872 5.14874 14.0444 5.29153 13.7588 5.57712L11.3359 7.99999L13.7588 10.4229C14.0444 10.7085 14.1872 10.8512 14.3098 10.8609C14.4162 10.8693 14.5201 10.8262 14.5894 10.7451C14.6693 10.6516 14.6693 10.4496 14.6693 10.0457V5.95424Z" stroke="#134BBF" stroke-width="1.3" stroke-linecap="round" stroke-linejoin="round"/>
<path d="M1.33594 6.53333C1.33594 5.41322 1.33594 4.85317 1.55392 4.42535C1.74567 4.04902 2.05163 3.74306 2.42796 3.55132C2.85578 3.33333 3.41583 3.33333 4.53594 3.33333H8.13594C9.25604 3.33333 9.81609 3.33333 10.2439 3.55132C10.6202 3.74306 10.9262 4.04902 11.1179 4.42535C11.3359 4.85317 11.3359 5.41322 11.3359 6.53333V9.46666C11.3359 10.5868 11.3359 11.1468 11.1179 11.5746C10.9262 11.951 10.6202 12.2569 10.2439 12.4487C9.81609 12.6667 9.25604 12.6667 8.13594 12.6667H4.53594C3.41583 12.6667 2.85578 12.6667 2.42796 12.4487C2.05163 12.2569 1.74567 11.951 1.55392 11.5746C1.33594 11.1468 1.33594 10.5868 1.33594 9.46666V6.53333Z" stroke="#134BBF" stroke-width="1.3" stroke-linecap="round" stroke-linejoin="round"/>
</svg>
