<svg width="40" height="40" viewBox="0 0 40 40" fill="none" xmlns="http://www.w3.org/2000/svg">
<rect x="0.5" y="0.5" width="39" height="39" rx="19.5" fill="#F5F5F5"/>
<rect x="0.5" y="0.5" width="39" height="39" rx="19.5" stroke="#EFEFF0"/>
<path d="M11.4028 16.2132C11.4831 14.9765 12.4775 14.0072 13.7153 13.9459C15.5077 13.8571 18.0697 13.75 20 13.75C21.9303 13.75 24.4923 13.8571 26.2847 13.9459C27.5225 14.0072 28.5169 14.9765 28.5972 16.2132C28.6741 17.3981 28.75 18.856 28.75 20C28.75 21.144 28.6741 22.6019 28.5972 23.7868C28.5169 25.0235 27.5225 25.9928 26.2847 26.0541C24.4923 26.1429 21.9303 26.25 20 26.25C18.0697 26.25 15.5077 26.1429 13.7153 26.0541C12.4775 25.9928 11.4831 25.0235 11.4028 23.7868C11.3259 22.6019 11.25 21.144 11.25 20C11.25 18.856 11.3259 17.3981 11.4028 16.2132Z" fill="#FC0D1B"/>
<path d="M18.125 17.5V22.5L23.125 20L18.125 17.5Z" fill="white"/>
</svg>
